# xmcd
#
# Track frame offsets: 
#        150
#        15725
#        30767
#        52590
#        66047
#        80525
#        95152
#        112312
#        124547
#        142187
#
# Disc length: 2101 seconds
#
# Revision: 0
# Processed by: cddbd v1.4PL0 Copyright (c) Steve Scherf et al.
# Submitted via: ExactAudioCopy v0.90b3
#
DISCID=7f08330a
DTITLE=B.J. Thomas - Wind Beneath My Wings
DYEAR=1900
DGENRE=Country
TTITLE0=Two Car Garage
TTITLE1=Don't Worry
TTITLE2=Broken Toys
TTITLE3=New Looks From An Old Lover
TTITLE4=The Whole World's In Love When You're Lonely
TTITLE5=The Great American Dream
TTITLE6=The Wind Beneath My Wings
TTITLE7=Husbands And Wives
TTITLE8=Some Hearts Get All The Breaks
TTITLE9=Whatever Happened To Old Fashioned Love
EXTD=
EXTT0=
EXTT1=
EXTT2=
EXTT3=
EXTT4=
EXTT5=
EXTT6=
EXTT7=
EXTT8=
EXTT9=
PLAYORDER=
